<mxfile host="www.draw.io" agent="Mozilla/5.0 (Windows NT 10.0; Win64; x64) AppleWebKit/537.36 (KHTML, like Gecko) Chrome/129.0.0.0 Safari/537.36 Edg/129.0.0.0" version="24.7.17">
  <diagram name="Page-1" id="e7e014a7-5840-1c2e-5031-d8a46d1fe8dd">
    <mxGraphModel dx="2400" dy="2030" grid="1" gridSize="10" guides="1" tooltips="1" connect="1" arrows="1" fold="1" page="1" pageScale="1" pageWidth="1169" pageHeight="826" background="none" math="0" shadow="0">
      <root>
        <mxCell id="0" />
        <mxCell id="1" parent="0" />
        <mxCell id="2" value="User" style="swimlane;whiteSpace=wrap;fontSize=14;labelBackgroundColor=none;fontColor=#000033;" parent="1" vertex="1">
          <mxGeometry x="164.5" y="128" width="280" height="622" as="geometry" />
        </mxCell>
        <mxCell id="fdzSzKNUVTjexA41rDb1-58" value="" style="edgeStyle=orthogonalEdgeStyle;rounded=0;orthogonalLoop=1;jettySize=auto;html=1;fontSize=14;labelBackgroundColor=none;fontColor=#000033;" parent="2" source="OWSxBuw3PlxeEH9vvfOJ-84" target="fdzSzKNUVTjexA41rDb1-57" edge="1">
          <mxGeometry relative="1" as="geometry" />
        </mxCell>
        <mxCell id="OWSxBuw3PlxeEH9vvfOJ-84" value="" style="ellipse;html=1;fontSize=14;labelBackgroundColor=none;fontColor=#000033;" parent="2" vertex="1">
          <mxGeometry x="125" y="42" width="30" height="30" as="geometry" />
        </mxCell>
        <mxCell id="Gl-Y-7T9oAqCCnj3zlpJ-4" value="" style="edgeStyle=orthogonalEdgeStyle;rounded=0;orthogonalLoop=1;jettySize=auto;html=1;fontSize=14;labelBackgroundColor=none;fontColor=#000033;" parent="2" source="fdzSzKNUVTjexA41rDb1-57" target="fdzSzKNUVTjexA41rDb1-59" edge="1">
          <mxGeometry relative="1" as="geometry" />
        </mxCell>
        <mxCell id="fdzSzKNUVTjexA41rDb1-57" value="" style="rounded=1;whiteSpace=wrap;html=1;arcSize=32;fontSize=14;labelBackgroundColor=none;fontColor=#000033;" parent="2" vertex="1">
          <mxGeometry x="80" y="102" width="120" height="60" as="geometry" />
        </mxCell>
        <mxCell id="fdzSzKNUVTjexA41rDb1-59" value="" style="rounded=1;whiteSpace=wrap;html=1;arcSize=32;fontSize=14;labelBackgroundColor=none;fontColor=#000033;" parent="2" vertex="1">
          <mxGeometry x="80" y="202" width="120" height="60" as="geometry" />
        </mxCell>
        <mxCell id="hOp4fiPZm9Nk65nZzVz4-3" value="&lt;font style=&quot;font-size: 14px;&quot;&gt;Memasukkan Data Cucian&lt;/font&gt;" style="text;html=1;align=center;verticalAlign=middle;whiteSpace=wrap;rounded=0;fontSize=14;labelBackgroundColor=none;fontColor=#000033;" parent="2" vertex="1">
          <mxGeometry x="110" y="117" width="60" height="30" as="geometry" />
        </mxCell>
        <mxCell id="hOp4fiPZm9Nk65nZzVz4-4" value="&lt;font style=&quot;font-size: 14px;&quot;&gt;Menambah Pesanan&lt;/font&gt;" style="text;html=1;align=center;verticalAlign=middle;whiteSpace=wrap;rounded=0;fontSize=14;labelBackgroundColor=none;fontColor=#000033;" parent="2" vertex="1">
          <mxGeometry x="110" y="217" width="60" height="30" as="geometry" />
        </mxCell>
        <mxCell id="hOp4fiPZm9Nk65nZzVz4-12" value="" style="rounded=1;whiteSpace=wrap;html=1;arcSize=32;fontSize=14;labelBackgroundColor=none;fontColor=#000033;" parent="2" vertex="1">
          <mxGeometry x="80" y="302" width="120" height="60" as="geometry" />
        </mxCell>
        <mxCell id="hOp4fiPZm9Nk65nZzVz4-14" value="&lt;font style=&quot;font-size: 14px;&quot;&gt;Transaksi&lt;/font&gt;" style="text;html=1;align=center;verticalAlign=middle;whiteSpace=wrap;rounded=0;fontSize=14;labelBackgroundColor=none;fontColor=#000033;" parent="2" vertex="1">
          <mxGeometry x="110" y="317" width="60" height="30" as="geometry" />
        </mxCell>
        <mxCell id="hOp4fiPZm9Nk65nZzVz4-60" value="" style="rounded=1;whiteSpace=wrap;html=1;arcSize=32;fontSize=14;labelBackgroundColor=none;fontColor=#000033;" parent="2" vertex="1">
          <mxGeometry x="80" y="442" width="120" height="60" as="geometry" />
        </mxCell>
        <mxCell id="hOp4fiPZm9Nk65nZzVz4-59" value="&lt;font style=&quot;font-size: 14px;&quot;&gt;Lihat kode pesanan cucian&lt;/font&gt;" style="text;html=1;align=center;verticalAlign=middle;whiteSpace=wrap;rounded=0;fontSize=14;labelBackgroundColor=none;fontColor=#000033;" parent="2" vertex="1">
          <mxGeometry x="110" y="457" width="60" height="30" as="geometry" />
        </mxCell>
        <mxCell id="3" value="Admin" style="swimlane;whiteSpace=wrap;fontSize=14;labelBackgroundColor=none;fontColor=#000033;" parent="1" vertex="1">
          <mxGeometry x="444.5" y="128" width="340" height="622" as="geometry" />
        </mxCell>
        <mxCell id="Gl-Y-7T9oAqCCnj3zlpJ-3" style="edgeStyle=orthogonalEdgeStyle;rounded=0;orthogonalLoop=1;jettySize=auto;html=1;entryX=0.5;entryY=0;entryDx=0;entryDy=0;fontSize=14;labelBackgroundColor=none;fontColor=#000033;" parent="3" source="fdzSzKNUVTjexA41rDb1-65" target="fdzSzKNUVTjexA41rDb1-67" edge="1">
          <mxGeometry relative="1" as="geometry" />
        </mxCell>
        <mxCell id="fdzSzKNUVTjexA41rDb1-65" value="" style="rounded=1;whiteSpace=wrap;html=1;arcSize=32;fontSize=14;labelBackgroundColor=none;fontColor=#000033;" parent="3" vertex="1">
          <mxGeometry x="99.5" y="42" width="120" height="60" as="geometry" />
        </mxCell>
        <mxCell id="fdzSzKNUVTjexA41rDb1-80" value="" style="edgeStyle=orthogonalEdgeStyle;rounded=0;orthogonalLoop=1;jettySize=auto;html=1;fontSize=14;labelBackgroundColor=none;fontColor=#000033;" parent="3" source="fdzSzKNUVTjexA41rDb1-67" target="fdzSzKNUVTjexA41rDb1-79" edge="1">
          <mxGeometry relative="1" as="geometry" />
        </mxCell>
        <mxCell id="fdzSzKNUVTjexA41rDb1-67" value="" style="rounded=1;whiteSpace=wrap;html=1;arcSize=32;fontSize=14;labelBackgroundColor=none;fontColor=#000033;" parent="3" vertex="1">
          <mxGeometry x="99.5" y="156" width="120" height="60" as="geometry" />
        </mxCell>
        <mxCell id="fdzSzKNUVTjexA41rDb1-79" value="" style="rhombus;whiteSpace=wrap;html=1;rounded=1;arcSize=32;fontSize=14;labelBackgroundColor=none;fontColor=#000033;" parent="3" vertex="1">
          <mxGeometry x="119.5" y="239" width="80" height="80" as="geometry" />
        </mxCell>
        <mxCell id="hOp4fiPZm9Nk65nZzVz4-57" style="edgeStyle=orthogonalEdgeStyle;rounded=0;orthogonalLoop=1;jettySize=auto;html=1;entryX=1;entryY=0.5;entryDx=0;entryDy=0;fontSize=14;labelBackgroundColor=none;fontColor=#000033;" parent="3" source="fdzSzKNUVTjexA41rDb1-81" target="OWSxBuw3PlxeEH9vvfOJ-103" edge="1">
          <mxGeometry relative="1" as="geometry">
            <Array as="points">
              <mxPoint x="246" y="557" />
            </Array>
          </mxGeometry>
        </mxCell>
        <mxCell id="fdzSzKNUVTjexA41rDb1-81" value="" style="rounded=1;whiteSpace=wrap;html=1;arcSize=32;fontSize=14;labelBackgroundColor=none;fontColor=#000033;" parent="3" vertex="1">
          <mxGeometry x="184.5" y="354" width="120" height="60" as="geometry" />
        </mxCell>
        <mxCell id="fdzSzKNUVTjexA41rDb1-84" style="edgeStyle=orthogonalEdgeStyle;rounded=0;orthogonalLoop=1;jettySize=auto;html=1;entryX=0.537;entryY=-0.059;entryDx=0;entryDy=0;entryPerimeter=0;exitX=1;exitY=0.5;exitDx=0;exitDy=0;fontSize=14;labelBackgroundColor=none;fontColor=#000033;" parent="3" source="fdzSzKNUVTjexA41rDb1-79" target="fdzSzKNUVTjexA41rDb1-81" edge="1">
          <mxGeometry relative="1" as="geometry" />
        </mxCell>
        <mxCell id="hOp4fiPZm9Nk65nZzVz4-9" value="Tidak Valid" style="edgeLabel;html=1;align=center;verticalAlign=middle;resizable=0;points=[];fontSize=14;labelBackgroundColor=none;fontColor=#000033;" parent="fdzSzKNUVTjexA41rDb1-84" vertex="1" connectable="0">
          <mxGeometry x="-0.3798" y="1" relative="1" as="geometry">
            <mxPoint as="offset" />
          </mxGeometry>
        </mxCell>
        <mxCell id="OWSxBuw3PlxeEH9vvfOJ-103" value="" style="ellipse;html=1;shape=endState;fontSize=14;labelBackgroundColor=none;fontColor=#000033;" parent="3" vertex="1">
          <mxGeometry x="83.5" y="542" width="30" height="30" as="geometry" />
        </mxCell>
        <mxCell id="hOp4fiPZm9Nk65nZzVz4-6" value="&lt;font style=&quot;font-size: 14px;&quot;&gt;Login&lt;/font&gt;" style="text;html=1;align=center;verticalAlign=middle;whiteSpace=wrap;rounded=0;fontSize=14;labelBackgroundColor=none;fontColor=#000033;" parent="3" vertex="1">
          <mxGeometry x="129.5" y="57" width="60" height="30" as="geometry" />
        </mxCell>
        <mxCell id="hOp4fiPZm9Nk65nZzVz4-8" value="&lt;font style=&quot;font-size: 14px;&quot;&gt;Validasi Pesanan Cucian&lt;/font&gt;" style="text;html=1;align=center;verticalAlign=middle;whiteSpace=wrap;rounded=0;fontSize=14;labelBackgroundColor=none;fontColor=#000033;" parent="3" vertex="1">
          <mxGeometry x="129.5" y="171" width="60" height="30" as="geometry" />
        </mxCell>
        <mxCell id="hOp4fiPZm9Nk65nZzVz4-11" value="&lt;font style=&quot;font-size: 14px;&quot;&gt;Tampilan pesanan tidak valid&lt;/font&gt;" style="text;html=1;align=center;verticalAlign=middle;whiteSpace=wrap;rounded=0;fontSize=14;labelBackgroundColor=none;fontColor=#000033;" parent="3" vertex="1">
          <mxGeometry x="214.5" y="369" width="60" height="30" as="geometry" />
        </mxCell>
        <mxCell id="hOp4fiPZm9Nk65nZzVz4-22" style="edgeStyle=orthogonalEdgeStyle;rounded=0;orthogonalLoop=1;jettySize=auto;html=1;entryX=0.5;entryY=0;entryDx=0;entryDy=0;fontSize=14;labelBackgroundColor=none;fontColor=#000033;" parent="3" source="hOp4fiPZm9Nk65nZzVz4-15" target="hOp4fiPZm9Nk65nZzVz4-19" edge="1">
          <mxGeometry relative="1" as="geometry" />
        </mxCell>
        <mxCell id="hOp4fiPZm9Nk65nZzVz4-15" value="" style="rounded=1;whiteSpace=wrap;html=1;arcSize=32;fontSize=14;labelBackgroundColor=none;fontColor=#000033;" parent="3" vertex="1">
          <mxGeometry x="38.5" y="352" width="120" height="60" as="geometry" />
        </mxCell>
        <mxCell id="hOp4fiPZm9Nk65nZzVz4-18" value="&lt;font style=&quot;font-size: 14px;&quot;&gt;Update status cucian&lt;/font&gt;" style="text;html=1;align=center;verticalAlign=middle;whiteSpace=wrap;rounded=0;fontSize=14;labelBackgroundColor=none;fontColor=#000033;" parent="3" vertex="1">
          <mxGeometry x="57.75" y="367" width="81.5" height="30" as="geometry" />
        </mxCell>
        <mxCell id="hOp4fiPZm9Nk65nZzVz4-23" value="" style="edgeStyle=orthogonalEdgeStyle;rounded=0;orthogonalLoop=1;jettySize=auto;html=1;fontSize=14;labelBackgroundColor=none;fontColor=#000033;" parent="3" source="hOp4fiPZm9Nk65nZzVz4-19" target="OWSxBuw3PlxeEH9vvfOJ-103" edge="1">
          <mxGeometry relative="1" as="geometry" />
        </mxCell>
        <mxCell id="hOp4fiPZm9Nk65nZzVz4-19" value="" style="rounded=1;whiteSpace=wrap;html=1;arcSize=32;fontSize=14;labelBackgroundColor=none;fontColor=#000033;" parent="3" vertex="1">
          <mxGeometry x="38.5" y="442" width="120" height="60" as="geometry" />
        </mxCell>
        <mxCell id="hOp4fiPZm9Nk65nZzVz4-20" value="&lt;font style=&quot;font-size: 14px;&quot;&gt;Tambah kode untuk pesanan cucian&lt;/font&gt;" style="text;html=1;align=center;verticalAlign=middle;whiteSpace=wrap;rounded=0;fontSize=14;labelBackgroundColor=none;fontColor=#000033;" parent="3" vertex="1">
          <mxGeometry x="47.37" y="458.5" width="102.25" height="27" as="geometry" />
        </mxCell>
        <mxCell id="fdzSzKNUVTjexA41rDb1-45" value="User" style="swimlane;whiteSpace=wrap;fontSize=14;labelBackgroundColor=none;fontColor=#000033;" parent="1" vertex="1">
          <mxGeometry x="850" y="128" width="280" height="612" as="geometry" />
        </mxCell>
        <mxCell id="fdzSzKNUVTjexA41rDb1-38" value="" style="ellipse;html=1;shape=endState;fontSize=14;labelBackgroundColor=none;fontColor=#000033;" parent="fdzSzKNUVTjexA41rDb1-45" vertex="1">
          <mxGeometry x="125" y="342" width="30" height="30" as="geometry" />
        </mxCell>
        <mxCell id="Gl-Y-7T9oAqCCnj3zlpJ-15" value="" style="edgeStyle=orthogonalEdgeStyle;rounded=0;orthogonalLoop=1;jettySize=auto;html=1;fontSize=14;labelBackgroundColor=none;fontColor=#000033;" parent="fdzSzKNUVTjexA41rDb1-45" source="Gl-Y-7T9oAqCCnj3zlpJ-13" target="Gl-Y-7T9oAqCCnj3zlpJ-14" edge="1">
          <mxGeometry relative="1" as="geometry" />
        </mxCell>
        <mxCell id="Gl-Y-7T9oAqCCnj3zlpJ-13" value="" style="rounded=1;whiteSpace=wrap;html=1;arcSize=32;fontSize=14;labelBackgroundColor=none;fontColor=#000033;" parent="fdzSzKNUVTjexA41rDb1-45" vertex="1">
          <mxGeometry x="80" y="127" width="120" height="60" as="geometry" />
        </mxCell>
        <mxCell id="Gl-Y-7T9oAqCCnj3zlpJ-23" value="" style="edgeStyle=orthogonalEdgeStyle;rounded=0;orthogonalLoop=1;jettySize=auto;html=1;fontSize=14;labelBackgroundColor=none;fontColor=#000033;" parent="fdzSzKNUVTjexA41rDb1-45" source="Gl-Y-7T9oAqCCnj3zlpJ-14" target="fdzSzKNUVTjexA41rDb1-38" edge="1">
          <mxGeometry relative="1" as="geometry" />
        </mxCell>
        <mxCell id="Gl-Y-7T9oAqCCnj3zlpJ-14" value="" style="rounded=1;whiteSpace=wrap;html=1;arcSize=32;fontSize=14;labelBackgroundColor=none;fontColor=#000033;" parent="fdzSzKNUVTjexA41rDb1-45" vertex="1">
          <mxGeometry x="80" y="225" width="120" height="60" as="geometry" />
        </mxCell>
        <mxCell id="Gl-Y-7T9oAqCCnj3zlpJ-22" value="" style="edgeStyle=orthogonalEdgeStyle;rounded=0;orthogonalLoop=1;jettySize=auto;html=1;fontSize=14;labelBackgroundColor=none;fontColor=#000033;" parent="fdzSzKNUVTjexA41rDb1-45" source="fdzSzKNUVTjexA41rDb1-39" target="Gl-Y-7T9oAqCCnj3zlpJ-13" edge="1">
          <mxGeometry relative="1" as="geometry" />
        </mxCell>
        <mxCell id="fdzSzKNUVTjexA41rDb1-39" value="" style="ellipse;html=1;fontSize=14;labelBackgroundColor=none;fontColor=#000033;" parent="fdzSzKNUVTjexA41rDb1-45" vertex="1">
          <mxGeometry x="125" y="42" width="30" height="30" as="geometry" />
        </mxCell>
        <mxCell id="hOp4fiPZm9Nk65nZzVz4-24" value="&lt;font style=&quot;font-size: 14px;&quot;&gt;Memasukkan kode pesanan cucian&lt;/font&gt;" style="text;html=1;align=center;verticalAlign=middle;whiteSpace=wrap;rounded=0;fontSize=14;labelBackgroundColor=none;fontColor=#000033;" parent="fdzSzKNUVTjexA41rDb1-45" vertex="1">
          <mxGeometry x="80" y="142" width="120" height="30" as="geometry" />
        </mxCell>
        <mxCell id="hOp4fiPZm9Nk65nZzVz4-25" value="&lt;font style=&quot;font-size: 14px;&quot;&gt;Melihat status pesanan cucian&lt;/font&gt;" style="text;html=1;align=center;verticalAlign=middle;whiteSpace=wrap;rounded=0;fontSize=14;labelBackgroundColor=none;fontColor=#000033;" parent="fdzSzKNUVTjexA41rDb1-45" vertex="1">
          <mxGeometry x="80" y="240" width="120" height="30" as="geometry" />
        </mxCell>
        <mxCell id="fdzSzKNUVTjexA41rDb1-54" value="Manajemen Pesanan" style="text;align=center;fontStyle=1;verticalAlign=middle;spacingLeft=3;spacingRight=3;strokeColor=none;rotatable=0;points=[[0,0.5],[1,0.5]];portConstraint=eastwest;html=1;fontSize=14;labelBackgroundColor=none;fontColor=#000033;" parent="1" vertex="1">
          <mxGeometry x="164.5" y="90" width="130" height="26" as="geometry" />
        </mxCell>
        <mxCell id="fdzSzKNUVTjexA41rDb1-55" value="Pelacakan Pesanan" style="text;align=center;fontStyle=1;verticalAlign=middle;spacingLeft=3;spacingRight=3;strokeColor=none;rotatable=0;points=[[0,0.5],[1,0.5]];portConstraint=eastwest;html=1;fontSize=14;labelBackgroundColor=none;fontColor=#000033;" parent="1" vertex="1">
          <mxGeometry x="870" y="90" width="130" height="26" as="geometry" />
        </mxCell>
        <mxCell id="hOp4fiPZm9Nk65nZzVz4-7" style="edgeStyle=orthogonalEdgeStyle;rounded=0;orthogonalLoop=1;jettySize=auto;html=1;entryX=0;entryY=0.5;entryDx=0;entryDy=0;fontSize=14;labelBackgroundColor=none;fontColor=#000033;" parent="1" source="fdzSzKNUVTjexA41rDb1-59" target="fdzSzKNUVTjexA41rDb1-67" edge="1">
          <mxGeometry relative="1" as="geometry" />
        </mxCell>
        <mxCell id="fdzSzKNUVTjexA41rDb1-83" style="edgeStyle=orthogonalEdgeStyle;rounded=0;orthogonalLoop=1;jettySize=auto;html=1;exitX=0;exitY=0.5;exitDx=0;exitDy=0;entryX=0.5;entryY=0;entryDx=0;entryDy=0;fontSize=14;labelBackgroundColor=none;fontColor=#000033;" parent="1" source="fdzSzKNUVTjexA41rDb1-79" target="hOp4fiPZm9Nk65nZzVz4-12" edge="1">
          <mxGeometry relative="1" as="geometry">
            <mxPoint x="370" y="460" as="targetPoint" />
            <Array as="points">
              <mxPoint x="564" y="410" />
              <mxPoint x="304" y="410" />
              <mxPoint x="304" y="430" />
            </Array>
          </mxGeometry>
        </mxCell>
        <mxCell id="hOp4fiPZm9Nk65nZzVz4-10" value="Valid" style="edgeLabel;html=1;align=center;verticalAlign=middle;resizable=0;points=[];fontSize=14;labelBackgroundColor=none;fontColor=#000033;" parent="fdzSzKNUVTjexA41rDb1-83" vertex="1" connectable="0">
          <mxGeometry x="-0.6445" y="-1" relative="1" as="geometry">
            <mxPoint as="offset" />
          </mxGeometry>
        </mxCell>
        <mxCell id="hOp4fiPZm9Nk65nZzVz4-17" style="edgeStyle=orthogonalEdgeStyle;rounded=0;orthogonalLoop=1;jettySize=auto;html=1;entryX=0.5;entryY=0;entryDx=0;entryDy=0;fontSize=14;labelBackgroundColor=none;fontColor=#000033;" parent="1" source="hOp4fiPZm9Nk65nZzVz4-12" target="hOp4fiPZm9Nk65nZzVz4-15" edge="1">
          <mxGeometry relative="1" as="geometry" />
        </mxCell>
        <mxCell id="hOp4fiPZm9Nk65nZzVz4-26" value="Admin" style="swimlane;whiteSpace=wrap;fontSize=14;labelBackgroundColor=none;fontColor=#000033;" parent="1" vertex="1">
          <mxGeometry x="164.5" y="838" width="450" height="742" as="geometry" />
        </mxCell>
        <mxCell id="hOp4fiPZm9Nk65nZzVz4-27" style="edgeStyle=orthogonalEdgeStyle;rounded=0;orthogonalLoop=1;jettySize=auto;html=1;entryX=0.5;entryY=0;entryDx=0;entryDy=0;fontSize=14;labelBackgroundColor=none;fontColor=#000033;" parent="hOp4fiPZm9Nk65nZzVz4-26" source="hOp4fiPZm9Nk65nZzVz4-28" target="hOp4fiPZm9Nk65nZzVz4-30" edge="1">
          <mxGeometry relative="1" as="geometry" />
        </mxCell>
        <mxCell id="hOp4fiPZm9Nk65nZzVz4-28" value="" style="rounded=1;whiteSpace=wrap;html=1;arcSize=32;fontSize=14;labelBackgroundColor=none;fontColor=#000033;" parent="hOp4fiPZm9Nk65nZzVz4-26" vertex="1">
          <mxGeometry x="157.5" y="117" width="120" height="60" as="geometry" />
        </mxCell>
        <mxCell id="hOp4fiPZm9Nk65nZzVz4-29" value="" style="edgeStyle=orthogonalEdgeStyle;rounded=0;orthogonalLoop=1;jettySize=auto;html=1;fontSize=14;labelBackgroundColor=none;fontColor=#000033;" parent="hOp4fiPZm9Nk65nZzVz4-26" source="hOp4fiPZm9Nk65nZzVz4-30" target="hOp4fiPZm9Nk65nZzVz4-31" edge="1">
          <mxGeometry relative="1" as="geometry" />
        </mxCell>
        <mxCell id="hOp4fiPZm9Nk65nZzVz4-30" value="" style="rounded=1;whiteSpace=wrap;html=1;arcSize=32;fontSize=14;labelBackgroundColor=none;fontColor=#000033;" parent="hOp4fiPZm9Nk65nZzVz4-26" vertex="1">
          <mxGeometry x="157.5" y="231" width="120" height="60" as="geometry" />
        </mxCell>
        <mxCell id="hOp4fiPZm9Nk65nZzVz4-31" value="" style="rhombus;whiteSpace=wrap;html=1;rounded=1;arcSize=32;fontSize=14;labelBackgroundColor=none;fontColor=#000033;" parent="hOp4fiPZm9Nk65nZzVz4-26" vertex="1">
          <mxGeometry x="177.5" y="314" width="80" height="80" as="geometry" />
        </mxCell>
        <mxCell id="hOp4fiPZm9Nk65nZzVz4-32" value="" style="rounded=1;whiteSpace=wrap;html=1;arcSize=32;fontSize=14;labelBackgroundColor=none;fontColor=#000033;" parent="hOp4fiPZm9Nk65nZzVz4-26" vertex="1">
          <mxGeometry x="257.5" y="429" width="120" height="60" as="geometry" />
        </mxCell>
        <mxCell id="hOp4fiPZm9Nk65nZzVz4-33" style="edgeStyle=orthogonalEdgeStyle;rounded=0;orthogonalLoop=1;jettySize=auto;html=1;entryX=0.537;entryY=-0.059;entryDx=0;entryDy=0;entryPerimeter=0;exitX=1;exitY=0.5;exitDx=0;exitDy=0;fontSize=14;labelBackgroundColor=none;fontColor=#000033;" parent="hOp4fiPZm9Nk65nZzVz4-26" source="hOp4fiPZm9Nk65nZzVz4-31" target="hOp4fiPZm9Nk65nZzVz4-32" edge="1">
          <mxGeometry relative="1" as="geometry" />
        </mxCell>
        <mxCell id="hOp4fiPZm9Nk65nZzVz4-34" value="Terjadwal" style="edgeLabel;html=1;align=center;verticalAlign=middle;resizable=0;points=[];fontSize=14;labelBackgroundColor=none;fontColor=#000033;" parent="hOp4fiPZm9Nk65nZzVz4-33" vertex="1" connectable="0">
          <mxGeometry x="-0.3798" y="1" relative="1" as="geometry">
            <mxPoint as="offset" />
          </mxGeometry>
        </mxCell>
        <mxCell id="hOp4fiPZm9Nk65nZzVz4-36" value="&lt;font style=&quot;font-size: 14px;&quot;&gt;Login&lt;/font&gt;" style="text;html=1;align=center;verticalAlign=middle;whiteSpace=wrap;rounded=0;fontSize=14;labelBackgroundColor=none;fontColor=#000033;" parent="hOp4fiPZm9Nk65nZzVz4-26" vertex="1">
          <mxGeometry x="187.5" y="132" width="60" height="30" as="geometry" />
        </mxCell>
        <mxCell id="hOp4fiPZm9Nk65nZzVz4-37" value="&lt;font style=&quot;font-size: 14px;&quot;&gt;Cek Pesanan Cucian&lt;/font&gt;" style="text;html=1;align=center;verticalAlign=middle;whiteSpace=wrap;rounded=0;fontSize=14;labelBackgroundColor=none;fontColor=#000033;" parent="hOp4fiPZm9Nk65nZzVz4-26" vertex="1">
          <mxGeometry x="178" y="246" width="79.5" height="30" as="geometry" />
        </mxCell>
        <mxCell id="hOp4fiPZm9Nk65nZzVz4-38" value="&lt;font style=&quot;font-size: 14px;&quot;&gt;Tampilan pesanan terjadwal&lt;/font&gt;" style="text;html=1;align=center;verticalAlign=middle;whiteSpace=wrap;rounded=0;fontSize=14;labelBackgroundColor=none;fontColor=#000033;" parent="hOp4fiPZm9Nk65nZzVz4-26" vertex="1">
          <mxGeometry x="287.5" y="444" width="60" height="30" as="geometry" />
        </mxCell>
        <mxCell id="hOp4fiPZm9Nk65nZzVz4-77" style="edgeStyle=orthogonalEdgeStyle;rounded=0;orthogonalLoop=1;jettySize=auto;html=1;entryX=0.5;entryY=0;entryDx=0;entryDy=0;fontSize=14;labelBackgroundColor=none;fontColor=#000033;" parent="hOp4fiPZm9Nk65nZzVz4-26" source="hOp4fiPZm9Nk65nZzVz4-75" target="hOp4fiPZm9Nk65nZzVz4-28" edge="1">
          <mxGeometry relative="1" as="geometry" />
        </mxCell>
        <mxCell id="hOp4fiPZm9Nk65nZzVz4-75" value="" style="ellipse;html=1;fontSize=14;labelBackgroundColor=none;fontColor=#000033;" parent="hOp4fiPZm9Nk65nZzVz4-26" vertex="1">
          <mxGeometry x="202.75" y="50" width="30" height="30" as="geometry" />
        </mxCell>
        <mxCell id="hOp4fiPZm9Nk65nZzVz4-39" style="edgeStyle=orthogonalEdgeStyle;rounded=0;orthogonalLoop=1;jettySize=auto;html=1;entryX=0.5;entryY=0;entryDx=0;entryDy=0;fontSize=14;labelBackgroundColor=none;fontColor=#000033;" parent="1" source="hOp4fiPZm9Nk65nZzVz4-40" target="hOp4fiPZm9Nk65nZzVz4-43" edge="1">
          <mxGeometry relative="1" as="geometry" />
        </mxCell>
        <mxCell id="hOp4fiPZm9Nk65nZzVz4-40" value="" style="rounded=1;whiteSpace=wrap;html=1;arcSize=32;fontSize=14;labelBackgroundColor=none;fontColor=#000033;" parent="1" vertex="1">
          <mxGeometry x="194.5" y="1267" width="120" height="60" as="geometry" />
        </mxCell>
        <mxCell id="hOp4fiPZm9Nk65nZzVz4-41" value="&lt;font style=&quot;font-size: 14px;&quot;&gt;Tambah jadwal pesanan cucian&lt;/font&gt;" style="text;html=1;align=center;verticalAlign=middle;whiteSpace=wrap;rounded=0;fontSize=14;labelBackgroundColor=none;fontColor=#000033;" parent="1" vertex="1">
          <mxGeometry x="213.75" y="1282" width="81.5" height="30" as="geometry" />
        </mxCell>
        <mxCell id="hOp4fiPZm9Nk65nZzVz4-69" style="edgeStyle=orthogonalEdgeStyle;rounded=0;orthogonalLoop=1;jettySize=auto;html=1;entryX=0;entryY=0.5;entryDx=0;entryDy=0;fontSize=14;labelBackgroundColor=none;fontColor=#000033;" parent="1" source="hOp4fiPZm9Nk65nZzVz4-43" target="hOp4fiPZm9Nk65nZzVz4-35" edge="1">
          <mxGeometry relative="1" as="geometry">
            <Array as="points">
              <mxPoint x="254.5" y="1475" />
            </Array>
          </mxGeometry>
        </mxCell>
        <mxCell id="hOp4fiPZm9Nk65nZzVz4-43" value="" style="rounded=1;whiteSpace=wrap;html=1;arcSize=32;fontSize=14;labelBackgroundColor=none;fontColor=#000033;" parent="1" vertex="1">
          <mxGeometry x="194.5" y="1357" width="120" height="60" as="geometry" />
        </mxCell>
        <mxCell id="hOp4fiPZm9Nk65nZzVz4-78" style="edgeStyle=orthogonalEdgeStyle;rounded=0;orthogonalLoop=1;jettySize=auto;html=1;entryX=0;entryY=0.5;entryDx=0;entryDy=0;fontSize=14;labelBackgroundColor=none;fontColor=#000033;" parent="1" source="hOp4fiPZm9Nk65nZzVz4-44" target="hOp4fiPZm9Nk65nZzVz4-71" edge="1">
          <mxGeometry relative="1" as="geometry">
            <Array as="points">
              <mxPoint x="554.5" y="1387" />
              <mxPoint x="554.5" y="978" />
            </Array>
          </mxGeometry>
        </mxCell>
        <mxCell id="hOp4fiPZm9Nk65nZzVz4-44" value="&lt;font style=&quot;font-size: 14px;&quot;&gt;Lihat jadwal pesanan cucian&lt;/font&gt;" style="text;html=1;align=center;verticalAlign=middle;whiteSpace=wrap;rounded=0;fontSize=14;labelBackgroundColor=none;fontColor=#000033;" parent="1" vertex="1">
          <mxGeometry x="213.75" y="1372" width="81.5" height="30" as="geometry" />
        </mxCell>
        <mxCell id="hOp4fiPZm9Nk65nZzVz4-45" style="edgeStyle=orthogonalEdgeStyle;rounded=0;orthogonalLoop=1;jettySize=auto;html=1;entryX=0.429;entryY=-0.033;entryDx=0;entryDy=0;entryPerimeter=0;exitX=0;exitY=0.5;exitDx=0;exitDy=0;fontSize=14;labelBackgroundColor=none;fontColor=#000033;" parent="1" source="hOp4fiPZm9Nk65nZzVz4-31" target="hOp4fiPZm9Nk65nZzVz4-40" edge="1">
          <mxGeometry relative="1" as="geometry">
            <Array as="points">
              <mxPoint x="364.5" y="1192" />
              <mxPoint x="245.5" y="1193" />
            </Array>
          </mxGeometry>
        </mxCell>
        <mxCell id="hOp4fiPZm9Nk65nZzVz4-46" value="Tidak Terjadwal" style="edgeLabel;html=1;align=center;verticalAlign=middle;resizable=0;points=[];fontSize=14;labelBackgroundColor=none;fontColor=#000033;" parent="hOp4fiPZm9Nk65nZzVz4-45" vertex="1" connectable="0">
          <mxGeometry x="-0.7115" relative="1" as="geometry">
            <mxPoint x="-67" as="offset" />
          </mxGeometry>
        </mxCell>
        <mxCell id="hOp4fiPZm9Nk65nZzVz4-47" value="User" style="swimlane;whiteSpace=wrap;fontSize=14;labelBackgroundColor=none;fontColor=#000033;" parent="1" vertex="1">
          <mxGeometry x="614.5" y="838" width="280" height="740" as="geometry" />
        </mxCell>
        <mxCell id="hOp4fiPZm9Nk65nZzVz4-35" value="" style="ellipse;html=1;shape=endState;fontSize=14;labelBackgroundColor=none;fontColor=#000033;" parent="hOp4fiPZm9Nk65nZzVz4-47" vertex="1">
          <mxGeometry x="125" y="622" width="30" height="30" as="geometry" />
        </mxCell>
        <mxCell id="hOp4fiPZm9Nk65nZzVz4-79" style="edgeStyle=orthogonalEdgeStyle;rounded=0;orthogonalLoop=1;jettySize=auto;html=1;fontSize=14;labelBackgroundColor=none;fontColor=#000033;" parent="hOp4fiPZm9Nk65nZzVz4-47" source="hOp4fiPZm9Nk65nZzVz4-64" edge="1">
          <mxGeometry relative="1" as="geometry">
            <mxPoint x="139.99999999999977" y="620" as="targetPoint" />
          </mxGeometry>
        </mxCell>
        <mxCell id="hOp4fiPZm9Nk65nZzVz4-64" value="" style="rounded=1;whiteSpace=wrap;html=1;arcSize=32;fontSize=14;labelBackgroundColor=none;fontColor=#000033;" parent="hOp4fiPZm9Nk65nZzVz4-47" vertex="1">
          <mxGeometry x="80" y="527" width="120" height="60" as="geometry" />
        </mxCell>
        <mxCell id="hOp4fiPZm9Nk65nZzVz4-65" value="&lt;font style=&quot;font-size: 14px;&quot;&gt;Lihat jadwal pesanan cucian&lt;/font&gt;" style="text;html=1;align=center;verticalAlign=middle;whiteSpace=wrap;rounded=0;fontSize=14;labelBackgroundColor=none;fontColor=#000033;" parent="hOp4fiPZm9Nk65nZzVz4-47" vertex="1">
          <mxGeometry x="99.25" y="542" width="81.5" height="30" as="geometry" />
        </mxCell>
        <mxCell id="hOp4fiPZm9Nk65nZzVz4-73" style="edgeStyle=orthogonalEdgeStyle;rounded=0;orthogonalLoop=1;jettySize=auto;html=1;entryX=0.5;entryY=0;entryDx=0;entryDy=0;fontSize=14;labelBackgroundColor=none;fontColor=#000033;" parent="hOp4fiPZm9Nk65nZzVz4-47" source="hOp4fiPZm9Nk65nZzVz4-70" target="hOp4fiPZm9Nk65nZzVz4-64" edge="1">
          <mxGeometry relative="1" as="geometry">
            <mxPoint x="140" y="450" as="targetPoint" />
          </mxGeometry>
        </mxCell>
        <mxCell id="hOp4fiPZm9Nk65nZzVz4-70" value="" style="rounded=1;whiteSpace=wrap;html=1;arcSize=32;fontSize=14;labelBackgroundColor=none;fontColor=#000033;" parent="hOp4fiPZm9Nk65nZzVz4-47" vertex="1">
          <mxGeometry x="80" y="110" width="120" height="60" as="geometry" />
        </mxCell>
        <mxCell id="hOp4fiPZm9Nk65nZzVz4-71" value="&lt;font style=&quot;font-size: 14px;&quot;&gt;Memasukkan kode pesanan cucian&lt;/font&gt;" style="text;html=1;align=center;verticalAlign=middle;whiteSpace=wrap;rounded=0;fontSize=14;labelBackgroundColor=none;fontColor=#000033;" parent="hOp4fiPZm9Nk65nZzVz4-47" vertex="1">
          <mxGeometry x="80" y="125" width="120" height="30" as="geometry" />
        </mxCell>
        <mxCell id="hOp4fiPZm9Nk65nZzVz4-63" style="edgeStyle=orthogonalEdgeStyle;rounded=0;orthogonalLoop=1;jettySize=auto;html=1;entryX=0.031;entryY=0.65;entryDx=0;entryDy=0;entryPerimeter=0;fontSize=14;labelBackgroundColor=none;fontColor=#000033;" parent="1" target="OWSxBuw3PlxeEH9vvfOJ-103" edge="1">
          <mxGeometry relative="1" as="geometry">
            <mxPoint x="305" y="630" as="sourcePoint" />
            <Array as="points">
              <mxPoint x="305" y="690" />
              <mxPoint x="446" y="690" />
            </Array>
          </mxGeometry>
        </mxCell>
        <mxCell id="hOp4fiPZm9Nk65nZzVz4-80" style="edgeStyle=orthogonalEdgeStyle;rounded=0;orthogonalLoop=1;jettySize=auto;html=1;entryX=1;entryY=0.5;entryDx=0;entryDy=0;fontSize=14;labelBackgroundColor=none;fontColor=#000033;" parent="1" source="hOp4fiPZm9Nk65nZzVz4-19" target="hOp4fiPZm9Nk65nZzVz4-60" edge="1">
          <mxGeometry relative="1" as="geometry" />
        </mxCell>
        <mxCell id="hOp4fiPZm9Nk65nZzVz4-81" value="Manajemen Jadwal" style="text;align=center;fontStyle=1;verticalAlign=middle;spacingLeft=3;spacingRight=3;strokeColor=none;rotatable=0;points=[[0,0.5],[1,0.5]];portConstraint=eastwest;html=1;fontSize=14;labelBackgroundColor=none;fontColor=#000033;" parent="1" vertex="1">
          <mxGeometry x="164.5" y="790" width="130" height="26" as="geometry" />
        </mxCell>
      </root>
    </mxGraphModel>
  </diagram>
</mxfile>
